<svg xmlns="http://www.w3.org/2000/svg" xml:space="preserve" enable-background="new 0 0 300 300" viewBox="0 0 300 300" id="woman-wearing-mask-and-cleaning">
  <path fill="#fdc782" d="M253.1,231H52c0,0-28.5-32.8-21.4-72s25.6-53.4,71.2-56.5c40.8-2.8,36.1-27.7,69.6-32.2   c37.9-5.1,77.2,12,94.7,67.3C281.2,185,253.1,231,253.1,231z"></path>
  <rect width="82.8" height="86.3" x="146.5" y="87" fill="#fff"></rect>
  <rect width="79.5" height="83" x="147.9" y="88.8" fill="#99daf3"></rect>
  <polygon fill="#77bfda" points="227.4 171.9 227.4 118.2 223.8 118.2 219.2 121.4 219.2 127.3 215.4 127.2 215.4 124.1 210.9 124.1 210.9 122.9 206.4 123 206.4 121.4 199.3 121.4 199.3 122.2 196.7 122.2 196.7 128.7 194.6 128.8 194.6 125.4 194.6 125.4 194.6 120.7 193.6 120.7 193.6 125.2 191.8 125.2 191.8 123.3 189.2 123.4 189.2 126.9 185.4 126.9 185.4 118.2 179.4 118.2 174.9 121.4 174.9 127.3 171.1 127.2 171.1 124.1 166.6 124.1 166.6 122.9 162 123 162 121.4 155 121.4 155 122.2 152.4 122.2 152.4 128.7 150.3 128.8 150.3 125.4 147.9 125.4 147.9 171.9"></polygon>
  <rect width="1.4" height="84.7" x="186.4" y="88.1" fill="#fff"></rect>
  <polygon fill="#fff" points="212.3 88.8 170.3 171.9 185.2 171.9 227.4 88.8" opacity=".59"></polygon>
  <polygon fill="#fff" points="200.5 88.8 159.4 171.9 165.3 171.9 206 88.8" opacity=".4"></polygon>
  <polygon fill="#fff" points="175.6 88.8 147.9 142.6 147.9 171.9 187.6 88.8" opacity=".59"></polygon>
  <g>
    <path fill="#74444a" d="M115.2,131.6c6.4,0.2,12.9,0.2,19.3,0.1l2.9-19.8c2-0.4,14.8-9.5,7.6-21.4c-7.7-12.7-23.7-18.5-30.3-2.5        s-2.9,20.2-19.2,36.3c0,0,0,0,0,0c-1.8,1.8-0.9,4.9,1.6,5.4C103,131,109.3,131.4,115.2,131.6z"></path>
    <ellipse cx="121.4" cy="80.3" fill="#74444a" rx="6.9" ry="7.5" transform="rotate(-38.321 121.425 80.305)"></ellipse>
    <path fill="none" stroke="#74444a" stroke-linecap="round" stroke-linejoin="round" stroke-miterlimit="10" stroke-width=".323" d="M113.1,93.7c-5.5,6.3-4.7,16.1-18,29.2c-0.3,0.3-0.7,0.7-1,1.1"></path>
    <path fill="#f3aca2" d="M122.5,96.4c1.7,0.5,2.6,1.8,2.6,1.8s5.5,0.4,9.1-3.3c3.6-3.7,4.1-7.6,4.1-7.6s3.9,2.9,5.1,7          c0.1,0.4,0.2,0.8,0.4,1.1c1.8,4.6,0.9,10-2.6,13.6c-0.4,0.4-0.8,0.7-1.1,1c-3.5,2.6-6.8,2.7-6.8,2.7l-1.7,14.1l-15.7-2.5          l6.9-20.8c0,0-3.9-0.5-4.1-3.4C118.4,97.3,120.7,95.9,122.5,96.4z"></path>
    <path fill="#d08487" d="M120.6,99.7c0.1-1.5,1.8-2.1,1.9-2.1c0.1,0,0.1,0,0.1,0.1c0,0.1,0,0.1-0.1,0.1c0,0-1.7,0.6-1.7,2         c0,0.2,0,0.3,0,0.5c0.4,0.1,1.4,0.3,1.8,0c0.4-0.3,0.3-0.7,0.3-0.8c0-0.1,0-0.1,0.1-0.1c0.1,0,0.1,0,0.1,0.1         c0,0,0.1,0.5-0.4,1c-0.1,0.1-0.2,0.1-0.4,0.2c-0.5,0.1-1.3-0.1-1.5-0.1c0.1,1,0.5,1.7,0.5,1.8c0,0,0,0.1,0,0.1c0,0,0,0,0,0         c0,0-0.1,0-0.1,0C121.2,102.3,120.5,101.2,120.6,99.7z"></path>
    <path fill="none" stroke="#9e5f67" stroke-linecap="round" stroke-linejoin="round" stroke-miterlimit="10" stroke-width=".323" d="M117.1 107.6c0 0-.4 6.6-9.8 14.3-2.3 1.9-4.4 4.1-6.2 6.3M121.9 85.1c0 0-5.1 4.4-7.1 11.5-1.9 7.1-.6 13.4-7.6 20.4-7 7-7 7-7 7"></path>
    <g>
      <path fill="#fff" d="M142.2,100c0,0-0.8,1.5-1.8,1.2c-1-0.3-0.9-1.4-1.3-1.5s0.4-1.6,1.1-1.9C142.1,97.2,142.2,100,142.2,100z"></path>
      <path fill="#2b1d30" d="M139.2,99.2L139.2,99.2c-0.1-0.1-0.1-0.5,0-0.8c0.3-0.5,0.9-1.1,1.7-1c1.4,0.1,1.5,2.4,1.5,2.4l-0.2,0.1      c0,0-0.3-1.6-1.1-2C140.3,97.5,139.2,99.2,139.2,99.2z"></path>
      <path fill="#2b1d30" d="M141.6,99.2c-0.2,1-0.7,1.8-1.2,1.7s-0.7-1-0.5-2c0.2-1,0.6-1.2,1.1-1.1S141.8,98.2,141.6,99.2z"></path>
      <ellipse cx="140.4" cy="99.1" fill="#fff" rx=".5" ry=".2" transform="rotate(-79.636 140.354 99.062)"></ellipse>
    </g>
    <g>
      <ellipse cx="138.7" cy="95.7" fill="#74444a" rx="3.8" ry=".7" transform="rotate(-9.903 138.755 95.732)"></ellipse>
    </g>
    <g>
      <path fill="#102d4f" d="M144.7,102.7c0-0.2-0.2-0.3-0.3-0.3c-0.6,0-1.8-0.1-2.8-0.2c-1.5-0.2-7.8-1.7-9-2     c-1.4-0.7-5.9-1.9-6.3-1.9l-1.2,0c2.6,0.8,5.7,1.8,7.4,2.7c0,0.6-0.1,1.5-0.5,3.1c-0.6,2.6-4,5.1-5.5,6.1     c-0.9-0.8-1.7-3.9-3.8-6.5l-0.3,1c2,2.6,2.4,5,3.4,5.9c0,0-0.1,0-0.1,0s0,0,1.2,1.6s5.2,5.4,9.1,4.8c3.9-0.7,8-8.3,8.4-10.2     C144.7,105.2,144.7,103.4,144.7,102.7z"></path>
    </g>
  </g>
  <g>
    <path fill="#f28e20" d="M69.6,231l14.9-74.3c2.9-14.4,12.1-26.4,24.6-31.2c15.3-5.9,28.2-0.4,36.7,15c3.4,6.2,5.5,13.1,6.3,20.2        L160,231H69.6z"></path>
    <line x1="117.1" x2="117.1" y1="184" y2="230.9" fill="none" stroke="#000425" stroke-linecap="round" stroke-linejoin="round" stroke-miterlimit="10" stroke-width=".646"></line>
    <line x1="278.5" x2="21.5" y1="231" y2="231" fill="none" stroke="#000425" stroke-linecap="round" stroke-linejoin="round" stroke-miterlimit="10" stroke-width=".646"></line>
  </g>
  <g>
    <path fill="#fdebe4" d="M259.1,192.5l-22.2-3.3c-2-0.3-4,1.1-4.3,3.2l-7.4,49.3c-0.3,2,1.1,4,3.2,4.3l22.2,3.3      c2,0.3,4-1.1,4.3-3.2l7.4-49.3C262.5,194.7,261.1,192.8,259.1,192.5z"></path>
    <rect width="2" height="5.9" x="264.3" y="177.7" fill="#da4443" transform="rotate(-171.494 265.306 180.642)"></rect>
    <polygon fill="#da4443" points="259.2 184.7 255.8 184.2 260 191 261.8 191.3"></polygon>
    <path fill="#fdebe4" d="M243.4,173.7c0.4-0.3,0.9-0.4,1.4-0.3l20.1,3l-1.4,9l-8.8-1.3c-1-0.2-2,0.6-2.1,1.6l-0.2,1l-7.6-1.1        l0.2-1.2c0.2-1-0.6-2-1.6-2.1l-0.9-0.1c-1.5-0.2-2.5-1.6-2.3-3.1l0,0C240.6,176.8,241.7,174.9,243.4,173.7z"></path>
    <polygon fill="#da4443" points="251.9 190.6 251.8 191.4 244.2 190.3 244.3 189.5 244.9 185.5 252.5 186.6"></polygon>
    <path fill="#30b999" d="M231,203.2l-5.8,38.7c-0.3,2.1,1.1,4.1,3.3,4.4l21.9,3.3c2.1,0.3,4.1-1.1,4.4-3.3l5.6-37.4L231,203.2z"></path>
    <g>
      <circle cx="251.7" cy="242" r="1.9" fill="#8bceb6"></circle>
      <circle cx="247.2" cy="242.1" r="1.2" fill="#8bceb6"></circle>
      <circle cx="247" cy="245.4" r=".5" fill="#8bceb6"></circle>
      <circle cx="250.5" cy="246.5" r=".9" fill="#8bceb6"></circle>
    </g>
    <g>
      <circle cx="235.6" cy="223.4" r="1.1" fill="#8bceb6"></circle>
      <circle cx="231.4" cy="222.3" r="1.6" fill="#8bceb6"></circle>
      <circle cx="231.2" cy="226.6" r=".6" fill="#8bceb6"></circle>
      <circle cx="235.7" cy="228.1" r="1.1" fill="#8bceb6"></circle>
    </g>
    <g>
      <polygon fill="#f8ad9c" points="179.5 205.2 187.8 231 230.5 210.6 226.1 193.7"></polygon>
      <path fill="#2178bd" d="M221.1,193.8c0,0,8-3.3,17.7-10.7c9.7-7.4,9.8-7.5,11.7-3.6c1.9,3.9-5.5,8.6-5.5,8.6s24.2,2.2,23.4,7.6       c-0.5,3.5-11.2,2.7-11.2,2.7s2.8,1.3,2.5,3.4s-4.7,2.1-4.7,2.1s2,1.3,0.4,3.4c-1.4,1.9-5.2,1.7-5.2,1.7s0,1.6-1.1,2.4       c-1.1,0.9-9-2.5-11.8-1.9c-2.9,0.6-12.9,5.9-12.9,5.9l-0.1-0.2C219.3,209.3,218.1,201,221.1,193.8L221.1,193.8z"></path>
      <line x1="250.3" x2="259.2" y1="197.6" y2="198.5" fill="none" stroke="#246592" stroke-linecap="round" stroke-linejoin="round" stroke-miterlimit="10" stroke-width=".323"></line>
      <path fill="none" stroke="#246592" stroke-linecap="round" stroke-linejoin="round" stroke-miterlimit="10" stroke-width=".323" d="M248.2,203.4c0.1,0,6.8,0.5,6.8,0.5"></path>
      <line x1="246" x2="249.9" y1="208.2" y2="209" fill="none" stroke="#246592" stroke-linecap="round" stroke-linejoin="round" stroke-miterlimit="10" stroke-width=".323"></line>
      <path fill="#f28e20" d="M121.3,238.4l-3.5-13.6l78.9-31.6l0,0c9.1,9.3,14.2,21.8,14,34.9v0l-57.5,23     C141.3,255.7,126.1,250.2,121.3,238.4z"></path>
    </g>
  </g>
  <path fill="none" stroke="#74444a" stroke-linecap="round" stroke-linejoin="round" stroke-miterlimit="10" stroke-width=".323" d="M113.6,91.6c-0.2-2.6,0.9-5.1,3.1-6.4c2.6-1.6,6-1.1,8.3,0.9"></path>
  <path fill="none" stroke="#9e5f67" stroke-linecap="round" stroke-linejoin="round" stroke-miterlimit="10" stroke-width=".323" d="M120.8,74.3c2.3,0.2,4.4,1.6,5.4,3.6"></path>
</svg>
