<?xml version="1.0" encoding="UTF-8"?>
<svg xmlns="http://www.w3.org/2000/svg" xmlns:xlink="http://www.w3.org/1999/xlink" width="800px" height="800px" viewBox="0 0 800 800" version="1.1">
<defs>
<clipPath id="clip1">
  <path d="M 655.117188 453.992188 L 683.007812 453.992188 L 683.007812 481.875 L 655.117188 481.875 Z M 655.117188 453.992188 "/>
</clipPath>
</defs>
<g id="surface1">
<path style=" stroke:none;fill-rule:nonzero;fill:rgb(0%,0%,0%);fill-opacity:1;" d="M 119.136719 308.707031 L 187.472656 362.109375 L 187.472656 312.007812 L 255.039062 312.007812 L 255.039062 447.910156 L 119.136719 447.910156 Z M 119.136719 308.707031 "/>
<path style=" stroke:none;fill-rule:nonzero;fill:rgb(0%,0%,0%);fill-opacity:1;" d="M 266.085938 311.808594 L 378.683594 311.808594 L 378.683594 357.640625 L 350.519531 357.640625 L 350.519531 363.476562 L 378.683594 363.476562 L 378.683594 396.074219 L 350.519531 396.074219 L 350.519531 401.910156 L 378.683594 401.910156 L 378.683594 447.707031 L 266.085938 447.707031 Z M 266.085938 311.808594 "/>
<path style=" stroke:none;fill-rule:nonzero;fill:rgb(0%,0%,0%);fill-opacity:1;" d="M 458.070312 379.976562 L 495.738281 379.976562 L 495.738281 447.910156 L 390.136719 447.910156 L 390.136719 312.007812 L 458.070312 312.007812 Z M 458.070312 379.976562 "/>
<path style=" stroke:none;fill-rule:nonzero;fill:rgb(0%,0%,0%);fill-opacity:1;" d="M 495.539062 447.910156 L 581.339844 302.507812 L 667.140625 447.910156 Z M 495.539062 447.910156 "/>
<g clip-path="url(#clip1)" clip-rule="nonzero">
<path style=" stroke:none;fill-rule:nonzero;fill:rgb(0%,0%,0%);fill-opacity:1;" d="M 655.117188 453.992188 L 683.007812 453.992188 L 683.007812 481.875 L 655.117188 481.875 Z M 655.117188 453.992188 "/>
</g>
<path style=" stroke:none;fill-rule:nonzero;fill:rgb(100%,98.039216%,95.294118%);fill-opacity:1;" d="M 539.550781 420.269531 C 541.285156 420.269531 542.625 420.695312 543.585938 421.535156 C 544.558594 422.386719 545.117188 423.496094 545.25 424.871094 L 545.285156 425.035156 L 542.617188 425.035156 L 542.585938 424.871094 C 542.25 423.136719 541.226562 422.269531 539.519531 422.269531 C 538.425781 422.269531 537.550781 422.703125 536.886719 423.570312 C 536.234375 424.4375 535.917969 425.621094 535.917969 427.101562 C 535.917969 428.703125 536.234375 429.9375 536.886719 430.804688 C 537.550781 431.667969 538.402344 432.101562 539.453125 432.101562 C 540.292969 432.101562 540.96875 431.871094 541.484375 431.402344 C 542.019531 430.917969 542.367188 430.253906 542.550781 429.402344 L 542.585938 429.203125 L 545.21875 429.203125 L 545.183594 429.402344 C 545.050781 430.851562 544.460938 431.996094 543.417969 432.835938 C 542.367188 433.660156 541.019531 434.070312 539.351562 434.070312 C 537.484375 434.070312 535.96875 433.460938 534.816406 432.238281 C 533.683594 430.996094 533.117188 429.335938 533.117188 427.269531 C 533.117188 425.136719 533.71875 423.4375 534.917969 422.167969 C 536.136719 420.902344 537.683594 420.269531 539.550781 420.269531 Z M 539.550781 420.269531 "/>
<path style=" stroke:none;fill-rule:nonzero;fill:rgb(100%,98.039216%,95.294118%);fill-opacity:1;" d="M 557.78125 431.601562 L 557.78125 433.804688 L 548.214844 433.804688 L 548.214844 420.570312 L 550.878906 420.570312 L 550.878906 431.601562 Z M 557.78125 431.601562 "/>
<path style=" stroke:none;fill-rule:nonzero;fill:rgb(100%,98.039216%,95.294118%);fill-opacity:1;" d="M 569.953125 431.703125 L 569.953125 433.804688 L 560.386719 433.804688 L 560.386719 420.570312 L 569.753906 420.570312 L 569.753906 422.636719 L 563.054688 422.636719 L 563.054688 426.136719 L 569.285156 426.136719 L 569.285156 428.203125 L 563.054688 428.203125 L 563.054688 431.703125 Z M 569.953125 431.703125 "/>
<path style=" stroke:none;fill-rule:nonzero;fill:rgb(100%,98.039216%,95.294118%);fill-opacity:1;" d="M 579.988281 429.804688 L 575.523438 429.804688 L 574.191406 433.804688 L 571.390625 433.804688 L 576.15625 420.570312 L 579.488281 420.570312 L 584.15625 433.804688 L 581.289062 433.804688 Z M 577.757812 422.835938 L 576.191406 427.703125 L 579.324219 427.703125 Z M 577.757812 422.835938 "/>
<path style=" stroke:none;fill-rule:nonzero;fill:rgb(100%,98.039216%,95.294118%);fill-opacity:1;" d="M 597.976562 433.804688 L 594.34375 433.804688 L 588.910156 423.738281 C 588.976562 424.9375 589.011719 426.292969 589.011719 427.804688 L 589.011719 433.804688 L 586.34375 433.804688 L 586.34375 420.570312 L 589.878906 420.570312 L 595.445312 430.804688 C 595.378906 429.628906 595.34375 428.238281 595.34375 426.636719 L 595.34375 420.570312 L 597.976562 420.570312 Z M 597.976562 433.804688 "/>
<path style=" stroke:none;fill-rule:nonzero;fill:rgb(100%,98.039216%,95.294118%);fill-opacity:1;" d="M 611.078125 431.703125 L 611.078125 433.804688 L 601.511719 433.804688 L 601.511719 420.570312 L 610.878906 420.570312 L 610.878906 422.636719 L 604.179688 422.636719 L 604.179688 426.136719 L 610.414062 426.136719 L 610.414062 428.203125 L 604.179688 428.203125 L 604.179688 431.703125 Z M 611.078125 431.703125 "/>
<path style=" stroke:none;fill-rule:nonzero;fill:rgb(100%,98.039216%,95.294118%);fill-opacity:1;" d="M 623.515625 430.46875 C 623.691406 432.054688 624.015625 433.160156 624.484375 433.804688 L 621.582031 433.804688 C 621.265625 432.917969 621.058594 431.929688 620.949219 430.835938 C 620.75 429.351562 620.148438 428.5625 619.148438 428.46875 C 618.898438 428.46875 618.558594 428.46875 618.117188 428.46875 L 616.582031 428.46875 L 616.582031 433.804688 L 613.917969 433.804688 L 613.917969 420.570312 L 618.75 420.570312 C 619.484375 420.570312 620.125 420.59375 620.683594 420.636719 C 621.722656 420.769531 622.558594 421.128906 623.183594 421.703125 C 623.824219 422.261719 624.148438 423.085938 624.148438 424.167969 C 624.148438 424.996094 623.917969 425.6875 623.449219 426.238281 C 623 426.769531 622.382812 427.160156 621.582031 427.402344 C 622.714844 427.828125 623.359375 428.851562 623.515625 430.46875 Z M 616.582031 426.503906 L 618.382812 426.503906 C 618.917969 426.503906 619.28125 426.496094 619.484375 426.46875 C 620.75 426.363281 621.382812 425.726562 621.382812 424.570312 C 621.382812 423.96875 621.222656 423.527344 620.917969 423.238281 C 620.625 422.953125 620.191406 422.761719 619.617188 422.667969 C 619.324219 422.652344 618.957031 422.636719 618.515625 422.636719 L 616.582031 422.636719 Z M 616.582031 426.503906 "/>
<path style=" stroke:none;fill-rule:nonzero;fill:rgb(100%,98.039216%,95.294118%);fill-opacity:1;" d="M 631.449219 420.269531 C 632.957031 420.269531 634.117188 420.652344 634.914062 421.402344 C 635.714844 422.160156 636.191406 423.167969 636.347656 424.4375 L 633.648438 424.4375 C 633.558594 423.753906 633.324219 423.21875 632.949219 422.835938 C 632.566406 422.460938 632.03125 422.269531 631.347656 422.269531 C 630.816406 422.269531 630.367188 422.402344 630.015625 422.667969 C 629.65625 422.9375 629.480469 423.328125 629.480469 423.835938 C 629.480469 424.394531 629.691406 424.835938 630.117188 425.167969 C 630.53125 425.488281 631.265625 425.761719 632.316406 426.003906 C 633.757812 426.335938 634.824219 426.851562 635.515625 427.535156 C 636.199219 428.203125 636.550781 429.085938 636.550781 430.167969 C 636.550781 431.371094 636.066406 432.328125 635.117188 433.035156 C 634.183594 433.726562 633.023438 434.070312 631.648438 434.070312 C 630.023438 434.070312 628.730469 433.71875 627.78125 433.003906 C 626.824219 432.292969 626.28125 431.253906 626.148438 429.871094 L 628.847656 429.871094 C 629 430.585938 629.324219 431.136719 629.816406 431.535156 C 630.324219 431.917969 630.925781 432.101562 631.617188 432.101562 C 632.214844 432.101562 632.722656 431.953125 633.148438 431.636719 C 633.566406 431.328125 633.78125 430.929688 633.78125 430.4375 C 633.78125 429.863281 633.582031 429.402344 633.183594 429.070312 C 632.78125 428.71875 632.089844 428.429688 631.117188 428.203125 C 629.648438 427.851562 628.550781 427.371094 627.816406 426.769531 C 627.082031 426.167969 626.714844 425.304688 626.714844 424.167969 C 626.714844 422.996094 627.164062 422.054688 628.082031 421.335938 C 629.015625 420.628906 630.132812 420.269531 631.449219 420.269531 Z M 631.449219 420.269531 "/>
</g>
</svg>
